<svg width="50" height="50" viewBox="0 0 50 50" fill="none" xmlns="http://www.w3.org/2000/svg">
<path fill-rule="evenodd" clip-rule="evenodd" d="M16.6667 10.4167C18.3595 10.4166 20.0121 10.932 21.4047 11.8943C22.7973 12.8566 23.8638 14.2202 24.4623 15.8036C25.0608 17.3869 25.1629 19.115 24.7551 20.7579C24.3473 22.4008 23.4488 23.8805 22.1792 25.0001C23.4488 26.1197 24.3473 27.5994 24.7551 29.2423C25.1629 30.8851 25.0608 32.6132 24.4623 34.1966C23.8638 35.78 22.7973 37.1435 21.4047 38.1058C20.0121 39.0681 18.3595 39.5835 16.6667 39.5834H8.33341C7.22835 39.5834 6.16854 39.1444 5.38714 38.363C4.60573 37.5816 4.16675 36.5218 4.16675 35.4167V14.5834C4.16675 13.4783 4.60573 12.4185 5.38714 11.6371C6.16854 10.8557 7.22835 10.4167 8.33341 10.4167H16.6667ZM36.4584 18.7501C41.8897 18.7501 45.8334 23.6834 45.8334 29.1667C45.8333 29.677 45.646 30.1695 45.3069 30.5509C44.9678 30.9322 44.5006 31.1758 43.9938 31.2355L43.7501 31.2501H31.5417C32.2876 33.8001 34.3605 35.4167 36.4584 35.4167C38.7084 35.4167 39.9834 34.3522 41.1251 33.0209C41.4842 32.601 41.9955 32.3409 42.5464 32.298C43.0973 32.255 43.6427 32.4326 44.0626 32.7917C44.4825 33.1509 44.7426 33.6621 44.7855 34.213C44.8285 34.7639 44.6509 35.3093 44.2917 35.7292L44.0688 35.9834L43.5917 36.4959C42.0876 38.0417 39.8876 39.5834 36.4584 39.5834C31.0272 39.5834 27.0834 34.6501 27.0834 29.1667C27.0834 23.6834 31.0272 18.7501 36.4584 18.7501ZM16.6667 27.0834H8.33341V35.4167H16.6667C17.748 35.4216 18.7887 35.0059 19.5691 34.2576C20.3496 33.5093 20.8086 32.4869 20.8491 31.4065C20.8897 30.326 20.5087 29.2721 19.7866 28.4673C19.0644 27.6626 18.0578 27.1701 16.9792 27.0938L16.6667 27.0834ZM36.4584 22.9167C34.3605 22.9167 32.2876 24.5334 31.5417 27.0834H41.3751C40.6292 24.5334 38.5563 22.9167 36.4584 22.9167ZM16.6667 14.5834H8.33341V22.9167H16.6667C17.7718 22.9167 18.8316 22.4778 19.613 21.6964C20.3944 20.915 20.8334 19.8551 20.8334 18.7501C20.8334 17.645 20.3944 16.5852 19.613 15.8038C18.8316 15.0224 17.7718 14.5834 16.6667 14.5834ZM39.5834 12.5001C40.1359 12.5001 40.6659 12.7196 41.0566 13.1103C41.4473 13.501 41.6667 14.0309 41.6667 14.5834C41.6667 15.1359 41.4473 15.6659 41.0566 16.0566C40.6659 16.4473 40.1359 16.6667 39.5834 16.6667H33.3334C32.7809 16.6667 32.251 16.4473 31.8603 16.0566C31.4696 15.6659 31.2501 15.1359 31.2501 14.5834C31.2501 14.0309 31.4696 13.501 31.8603 13.1103C32.251 12.7196 32.7809 12.5001 33.3334 12.5001H39.5834Z" fill="#1769FF"/>
</svg>
