<svg width="50" height="50" viewBox="0 0 50 50" fill="none" xmlns="http://www.w3.org/2000/svg">
<path d="M6.24992 10.4167V9.375C5.97365 9.375 5.7087 9.48475 5.51335 9.6801C5.318 9.87545 5.20825 10.1404 5.20825 10.4167H6.24992ZM43.7499 10.4167H44.7916C44.7916 10.1404 44.6818 9.87545 44.4865 9.6801C44.2911 9.48475 44.0262 9.375 43.7499 9.375V10.4167ZM6.24992 12H24.9999H43.7499V9.375H6.24992V12ZM42 10.4167V22.9167V35.4167L44.7916 35.4167V10.4167L42 10.4167ZM39.5833 37.5H24.9999H10.4166V40.625H39.5833V37.5ZM8.20688 35.4167V22.9167V10.4167L5.20825 10.4167V35.4167H8.20688ZM10.4166 37.5C9.58778 37.5 9.08605 38.0861 8.5 37.5C7.91395 36.914 8.20688 36.2455 8.20688 35.4167H5.20825C5.20825 36.798 5.75699 38.1228 6.73374 39.0995C7.71049 40.0763 9.03525 40.625 10.4166 40.625V37.5ZM42 35.4167C42 36.2455 42 36.5 42 37C41.5 38 40.4121 37.5 39.5833 37.5V40.625C40.9646 40.625 42.2893 40.0763 43.2661 39.0995C44.2429 38.1228 44.7916 36.798 44.7916 35.4167L42 35.4167Z" fill="#AF1400"/>
<path d="M6.25 10.4167L25 29.1667L43.75 10.4167" stroke="#AF1400" stroke-width="2.5" stroke-linecap="round" stroke-linejoin="round"/>
</svg>
