<svg width="50" height="50" viewBox="0 0 50 50" fill="none" xmlns="http://www.w3.org/2000/svg">
<path d="M19.7917 16.6666V31.2499M19.7917 24.9999H30.2084M39.9167 12.4666C37.648 10.6749 33.2876 7.727 27.0584 5.67909C26.1001 5.36659 25.6209 5.20825 25.0001 5.20825C24.3792 5.20825 23.9001 5.3645 22.9417 5.67909C16.7126 7.72909 12.3542 10.6749 10.0834 12.4666C9.28758 13.0958 8.88967 13.4103 8.50633 14.0833C8.123 14.7583 8.048 15.3103 7.89591 16.4124C7.61883 18.4353 7.29175 21.552 7.29175 24.9999C7.29175 28.4478 7.61883 31.5624 7.89591 33.5874C8.04591 34.6916 8.123 35.2416 8.50633 35.9166C8.88967 36.5916 9.28758 36.9041 10.0834 37.5333C12.3522 39.3249 16.7126 42.2728 22.9417 44.3208C23.9001 44.6333 24.3792 44.7916 25.0001 44.7916C25.6209 44.7916 26.1001 44.6333 27.0584 44.3187C33.2876 42.2728 37.648 39.3249 39.9167 37.5333C40.7126 36.9041 41.1105 36.5916 41.4938 35.9166C41.8772 35.2416 41.9522 34.6895 42.1042 33.5874C42.3813 31.5645 42.7084 28.4478 42.7084 24.9999C42.7084 21.552 42.3813 18.4374 42.1042 16.4124C41.9542 15.3083 41.8772 14.7583 41.4938 14.0833C41.1105 13.4103 40.7126 13.0958 39.9167 12.4666Z" stroke="#2FDA72" stroke-width="2.5" stroke-linecap="round" stroke-linejoin="round"/>
<path d="M30.2085 18.7499V33.3333M32.2918 33.3333H28.1252L30.2085 35.4166L32.2918 33.3333ZM17.7085 16.6666H21.8752L19.7918 14.5833L17.7085 16.6666Z" stroke="#2FDA72" stroke-width="2.5" stroke-linecap="round" stroke-linejoin="round"/>
</svg>
