<svg width="50" height="50" viewBox="0 0 50 50" fill="none" xmlns="http://www.w3.org/2000/svg">
<path d="M16.2501 4.16675H33.7501C40.4168 4.16675 45.8334 9.58342 45.8334 16.2501V33.7501C45.8334 36.9548 44.5604 40.0282 42.2943 42.2943C40.0282 44.5604 36.9548 45.8334 33.7501 45.8334H16.2501C9.58342 45.8334 4.16675 40.4168 4.16675 33.7501V16.2501C4.16675 13.0454 5.43981 9.97194 7.70587 7.70587C9.97194 5.43981 13.0454 4.16675 16.2501 4.16675ZM15.8334 8.33342C13.8443 8.33342 11.9366 9.12359 10.5301 10.5301C9.12359 11.9366 8.33342 13.8443 8.33342 15.8334V34.1667C8.33342 38.3126 11.6876 41.6668 15.8334 41.6668H34.1667C36.1559 41.6668 38.0635 40.8766 39.4701 39.4701C40.8766 38.0635 41.6668 36.1559 41.6668 34.1667V15.8334C41.6668 11.6876 38.3126 8.33342 34.1667 8.33342H15.8334ZM35.9376 11.4584C36.6283 11.4584 37.2906 11.7328 37.779 12.2212C38.2674 12.7095 38.5418 13.3719 38.5418 14.0626C38.5418 14.7533 38.2674 15.4156 37.779 15.904C37.2906 16.3924 36.6283 16.6667 35.9376 16.6667C35.2469 16.6667 34.5845 16.3924 34.0962 15.904C33.6078 15.4156 33.3334 14.7533 33.3334 14.0626C33.3334 13.3719 33.6078 12.7095 34.0962 12.2212C34.5845 11.7328 35.2469 11.4584 35.9376 11.4584ZM25.0001 14.5834C27.7628 14.5834 30.4123 15.6809 32.3658 17.6344C34.3193 19.5879 35.4168 22.2374 35.4168 25.0001C35.4168 27.7628 34.3193 30.4123 32.3658 32.3658C30.4123 34.3193 27.7628 35.4168 25.0001 35.4168C22.2374 35.4168 19.5879 34.3193 17.6344 32.3658C15.6809 30.4123 14.5834 27.7628 14.5834 25.0001C14.5834 22.2374 15.6809 19.5879 17.6344 17.6344C19.5879 15.6809 22.2374 14.5834 25.0001 14.5834ZM25.0001 18.7501C23.3425 18.7501 21.7528 19.4086 20.5807 20.5807C19.4086 21.7528 18.7501 23.3425 18.7501 25.0001C18.7501 26.6577 19.4086 28.2474 20.5807 29.4195C21.7528 30.5916 23.3425 31.2501 25.0001 31.2501C26.6577 31.2501 28.2474 30.5916 29.4195 29.4195C30.5916 28.2474 31.2501 26.6577 31.2501 25.0001C31.2501 23.3425 30.5916 21.7528 29.4195 20.5807C28.2474 19.4086 26.6577 18.7501 25.0001 18.7501Z" fill="#910043"/>
</svg>
