<svg width="50" height="50" viewBox="0 0 50 50" fill="none" xmlns="http://www.w3.org/2000/svg">
<path d="M37.5 6.25C39.1576 6.25 40.7473 6.90848 41.9194 8.08058C43.0915 9.25269 43.75 10.8424 43.75 12.5V37.5C43.75 39.1576 43.0915 40.7473 41.9194 41.9194C40.7473 43.0915 39.1576 43.75 37.5 43.75H12.5C10.8424 43.75 9.25269 43.0915 8.08058 41.9194C6.90848 40.7473 6.25 39.1576 6.25 37.5V12.5C6.25 10.8424 6.90848 9.25269 8.08058 8.08058C9.25269 6.90848 10.8424 6.25 12.5 6.25H37.5ZM37.5 10.4167H12.5C11.9475 10.4167 11.4176 10.6362 11.0269 11.0269C10.6362 11.4176 10.4167 11.9475 10.4167 12.5V37.5C10.4167 38.0525 10.6362 38.5824 11.0269 38.9731C11.4176 39.3638 11.9475 39.5833 12.5 39.5833H37.5C38.0525 39.5833 38.5824 39.3638 38.9731 38.9731C39.3638 38.5824 39.5833 38.0525 39.5833 37.5V12.5C39.5833 11.9475 39.3638 11.4176 38.9731 11.0269C38.5824 10.6362 38.0525 10.4167 37.5 10.4167ZM16.6667 20.8333C17.1769 20.8334 17.6695 21.0207 18.0508 21.3598C18.4321 21.6989 18.6757 22.1661 18.7354 22.6729L18.75 22.9167V33.3333C18.7494 33.8643 18.5461 34.3751 18.1816 34.7612C17.817 35.1473 17.3188 35.3797 16.7888 35.4108C16.2587 35.4419 15.7367 35.2694 15.3295 34.9286C14.9223 34.5878 14.6606 34.1044 14.5979 33.5771L14.5833 33.3333V22.9167C14.5833 22.3641 14.8028 21.8342 15.1935 21.4435C15.5842 21.0528 16.1141 20.8333 16.6667 20.8333ZM22.9167 18.75C23.4046 18.7499 23.877 18.9211 24.2517 19.2337C24.6263 19.5462 24.8793 19.9804 24.9667 20.4604C25.3863 20.2181 25.8197 20.0004 26.2646 19.8083C27.6542 19.2146 29.7354 18.8875 31.6146 19.4771C32.6 19.7896 33.5896 20.3729 34.3229 21.3667C34.9792 22.2521 35.3333 23.3292 35.4042 24.5396L35.4167 25V33.3333C35.4161 33.8643 35.2128 34.3751 34.8482 34.7612C34.4837 35.1473 33.9855 35.3797 33.4554 35.4108C32.9253 35.4419 32.4034 35.2694 31.9962 34.9286C31.589 34.5878 31.3273 34.1044 31.2646 33.5771L31.25 33.3333V25C31.25 24.3125 31.0833 23.9917 30.975 23.8437C30.8193 23.6505 30.6051 23.5131 30.3646 23.4521C29.6396 23.2229 28.5958 23.3437 27.9021 23.6396C26.8604 24.0854 25.9062 24.7854 25.2562 25.4333L25 25.7083V33.3333C24.9994 33.8643 24.7961 34.3751 24.4316 34.7612C24.067 35.1473 23.5688 35.3797 23.0388 35.4108C22.5087 35.4419 21.9867 35.2694 21.5795 34.9286C21.1723 34.5878 20.9106 34.1044 20.8479 33.5771L20.8333 33.3333V20.8333C20.8333 20.2808 21.0528 19.7509 21.4435 19.3602C21.8342 18.9695 22.3641 18.75 22.9167 18.75ZM16.6667 14.5833C17.2192 14.5833 17.7491 14.8028 18.1398 15.1935C18.5305 15.5842 18.75 16.1141 18.75 16.6667C18.75 17.2192 18.5305 17.7491 18.1398 18.1398C17.7491 18.5305 17.2192 18.75 16.6667 18.75C16.1141 18.75 15.5842 18.5305 15.1935 18.1398C14.8028 17.7491 14.5833 17.2192 14.5833 16.6667C14.5833 16.1141 14.8028 15.5842 15.1935 15.1935C15.5842 14.8028 16.1141 14.5833 16.6667 14.5833Z" fill="#0077B5"/>
</svg>
