<svg width="50" height="50" viewBox="0 0 50 50" fill="none" xmlns="http://www.w3.org/2000/svg">
<path d="M39.6874 10.2291C37.7771 8.30017 35.502 6.77071 32.9947 5.72987C30.4874 4.68903 27.798 4.15762 25.0833 4.16662C13.7083 4.16662 4.43742 13.4374 4.43742 24.8124C4.43742 28.4583 5.39575 32 7.18742 35.125L4.27075 45.8333L15.2083 42.9583C18.2291 44.6041 21.6249 45.4791 25.0833 45.4791C36.4583 45.4791 45.7291 36.2083 45.7291 24.8333C45.7291 19.3124 43.5833 14.1249 39.6874 10.2291ZM25.0833 41.9791C21.9999 41.9791 18.9791 41.1458 16.3333 39.5833L15.7083 39.2083L9.20825 40.9166L10.9374 34.5833L10.5208 33.9375C8.80731 31.2022 7.89768 28.0401 7.89575 24.8124C7.89575 15.3541 15.6041 7.64578 25.0624 7.64578C29.6458 7.64578 33.9583 9.43745 37.1874 12.6874C38.7866 14.2788 40.0539 16.1719 40.9158 18.2569C41.7777 20.3419 42.217 22.5772 42.2083 24.8333C42.2499 34.2916 34.5416 41.9791 25.0833 41.9791ZM34.4999 29.1458C33.9791 28.8958 31.4374 27.6458 30.9791 27.4583C30.4999 27.2916 30.1666 27.2083 29.8124 27.7083C29.4583 28.2291 28.4791 29.3958 28.1874 29.7291C27.8958 30.0833 27.5833 30.1249 27.0624 29.8541C26.5416 29.6041 24.8749 29.0416 22.9166 27.2916C21.3749 25.9166 20.3541 24.2291 20.0416 23.7083C19.7499 23.1875 19.9999 22.9166 20.2707 22.6458C20.4999 22.4166 20.7916 22.0416 21.0416 21.7499C21.2916 21.4583 21.3958 21.2291 21.5624 20.8958C21.7291 20.5416 21.6458 20.2499 21.5208 19.9999C21.3958 19.7499 20.3541 17.2083 19.9374 16.1666C19.5208 15.1666 19.0833 15.2916 18.7708 15.2708H17.7708C17.4166 15.2708 16.8749 15.3958 16.3958 15.9166C15.9374 16.4374 14.6041 17.6874 14.6041 20.2291C14.6041 22.7708 16.4583 25.2291 16.7083 25.5625C16.9583 25.9166 20.3541 31.1249 25.5208 33.3541C26.7499 33.8958 27.7083 34.2083 28.4583 34.4375C29.6874 34.8333 30.8124 34.7708 31.7083 34.6458C32.7083 34.4999 34.7707 33.3958 35.1874 32.1874C35.6249 30.9791 35.6249 29.9583 35.4791 29.7291C35.3333 29.5 35.0207 29.3958 34.4999 29.1458Z" fill="#25D366"/>
</svg>
